<?xml version="1.0" encoding="utf-8"?>
<!-- Generator: Adobe Illustrator 18.1.0, SVG Export Plug-In . SVG Version: 6.00 Build 0)  -->
<svg version="1.1" id="Your_Icon" xmlns="http://www.w3.org/2000/svg" xmlns:xlink="http://www.w3.org/1999/xlink" x="0px" y="0px"
	 viewBox="-429 231 100 100" enable-background="new -429 231 100 100" xml:space="preserve">
<path fill="#FFFFFF" d="M-379,331c-27.6,0-50-22.4-50-50c0-27.6,22.4-50,50-50c27.6,0,50,22.4,50,50C-329,308.6-351.4,331-379,331z
	 M-379,240.2c-22.5,0-40.8,18.3-40.8,40.8s18.3,40.8,40.8,40.8s40.8-18.3,40.8-40.8C-338.2,258.5-356.5,240.2-379,240.2z"/>
<path fill="#FFFFFF" d="M-389.9,306.5c-1.4,0-2.8-0.6-3.8-1.6l-13.4-13.4c-2.1-2.1-2.1-5.5,0-7.6c2.1-2.1,5.5-2.1,7.6,0l9.6,9.6
	l31.5-31.5c2.1-2.1,5.5-2.1,7.6,0c2.1,2.1,2.1,5.5,0,7.6l-35.3,35.3C-387.2,305.9-388.5,306.5-389.9,306.5z"/>
</svg>
